<?xml version="1.0" encoding="utf-8"?>
<!-- Generator: Adobe Illustrator 19.1.0, SVG Export Plug-In . SVG Version: 6.00 Build 0)  -->
<svg version="1.1" id="Layer_1" xmlns="http://www.w3.org/2000/svg" xmlns:xlink="http://www.w3.org/1999/xlink" x="0px" y="0px"
	 viewBox="0 0 84.6 188.4" enable-background="new 0 0 84.6 188.4" xml:space="preserve">
<path fill="#3B4549" d="M13.8,180.8h6.3l-0.7,7h-6.8v-1.6c0,0-2.3,1.6-4.5,1.6s-8.2,0-8.2,0s-0.1-2.5,1.7-3.5s4.1-0.6,6.7-0.9
	S13.8,180.8,13.8,180.8z"/>
<path fill="#3B4549" d="M70.4,181.3h-6.5l0.8,7h7v-1.6c0,0,2.4,1.6,4.6,1.6s8.4,0,8.4,0s0.1-2.5-1.8-3.5c-1.9-1.1-4.2-0.6-6.8-0.9
	S70.4,181.3,70.4,181.3z"/>
<polygon fill="#262626" points="20.2,93.3 74.2,93.3 71.5,180.8 63.9,180.8 53.7,112.4 38.1,112.2 20.2,180.3 13.8,180.3 "/>
</svg>
