<?xml version="1.0" encoding="utf-8"?>
<!-- Generator: Adobe Illustrator 19.1.0, SVG Export Plug-In . SVG Version: 6.00 Build 0)  -->
<svg version="1.1" id="Layer_1" xmlns="http://www.w3.org/2000/svg" xmlns:xlink="http://www.w3.org/1999/xlink" x="0px" y="0px"
	 viewBox="0 0 36 11.2" enable-background="new 0 0 36 11.2" xml:space="preserve">
<path d="M0.1,2.8c0-0.2,0-0.3,0-0.4C-0.1,1.4,0.2,1,1.2,0.8c3.5-0.6,7-1.2,10.5-0.4c1.1,0.2,2.2,0.6,3.1,1.2
	c2.2,1.2,4.2,1.5,6.3-0.1c1.6-1.2,3.7-1.3,5.6-1.4c3-0.2,5.9,0.3,8.8,0.9c0.2,0,0.4,0.3,0.4,0.6c0.1,0.4,0,0.7,0,1.2
	c-0.7,0.2-1.4,0.3-2,0.4c-0.5,0.1-0.7,0.3-0.8,0.9c-0.1,2-0.5,3.9-2.1,5.4c-3.9,3.5-9.6,1.6-10.8-3.6c-0.2-0.8-0.5-1.5-1.3-1.6
	c-0.7-0.1-1.4,0.1-2.1,0.2c-1,0.1-1,0.9-1.2,1.6c-0.9,3.4-3.2,5.3-6.4,5.1C5.4,11,3,8.6,2.7,4.9c0-0.2,0-0.3,0-0.5
	c0.1-0.9-0.3-1.3-1.2-1.3C1,3,0.6,2.9,0.1,2.8z M9.4,10.8c0.3,0,0.6,0,0.9,0c0.2,0,0.3,0,0.5-0.1c2.9-0.7,4-2.9,4.6-5.5
	c0.4-1.8,0-2.6-1.7-3.3c-1-0.4-2.1-0.7-3.1-0.9C8.5,0.7,6.3,0.8,4.3,1.7C3.5,2,2.9,2.6,2.9,3.5C2.9,7.1,4.3,10.6,9.4,10.8z
	 M32.9,3.5c0.2-0.8-0.3-1.5-1.3-1.9c-3.4-1.3-6.7-1-9.9,0.5c-1,0.5-1.5,1.5-1.5,2.6c0.3,5,5.3,7.6,9.6,5.1
	C32.2,8.5,32.7,6.3,32.9,3.5z"/>
</svg>
