<?xml version="1.0" encoding="utf-8"?>
<!-- Generator: Adobe Illustrator 19.1.0, SVG Export Plug-In . SVG Version: 6.00 Build 0)  -->
<svg version="1.1" id="Layer_1" xmlns="http://www.w3.org/2000/svg" xmlns:xlink="http://www.w3.org/1999/xlink" x="0px" y="0px"
	 viewBox="0 0 50.3 145.4" enable-background="new 0 0 50.3 145.4" xml:space="preserve">
<g>
	<rect x="20.6" y="50.4" fill="#E3BC96" width="13.4" height="29.3"/>
	<path fill="#F7D6B3" d="M44.6,33.7c0.2-2.5,0.3-4.6,0.3-6c0-6.2-2.7-11.7-5.1-12.3c-2.4-0.6-24.9,0.7-25.2,1
		C14.3,16.8,8,18,6.9,20.4s-1,2.4-1,2.4C6,22.9,6,23.1,6,23.4C6.3,25,6.7,29,7.3,33.7c-2.3,0.3-4,2.5-4,5c0,2.8,2.1,5.1,4.6,5.1
		c0.3,0,0.5,0,0.8-0.1c1,6.4,1.1,9.9,3.4,13.3c2.3,3.4,7.9,6.9,14.8,7c6.9,0.1,10.6-3.5,12.8-5.2s3.2-9.2,4.1-17.2
		c0.2,0,0.5,0,0.7,0c3.1,0,5.5-1.8,5.5-4C50.1,35.5,47.7,33.7,44.6,33.7z"/>
	<path fill="#492C17" d="M47.8,31.3c1.1-6,5-18.7,0.1-20.3S24.5,7.6,17.1,5.7S2,0,2,0S4.7,6.1,6,7S2,4.5,2,4.5s0.6,5.2,1.4,5.6
		S0,9.6,0,9.6s4.5,13.8,4.8,18.9c0.3,5.2,1.2,5.3,1.2,5.3l3.1,17.5c0,0,2,9.4,12.3,11.9C35.8,66.6,41,56.8,41,56.8
		S47.1,35.4,47.8,31.3z"/>
</g>
</svg>
