<?xml version="1.0" encoding="utf-8"?>
<!-- Generator: Adobe Illustrator 19.1.0, SVG Export Plug-In . SVG Version: 6.00 Build 0)  -->
<svg version="1.1" id="Layer_1" xmlns="http://www.w3.org/2000/svg" xmlns:xlink="http://www.w3.org/1999/xlink" x="0px" y="0px"
	 viewBox="0 0 50.4 79.7" enable-background="new 0 0 50.4 79.7" xml:space="preserve">
<g>
	<rect x="20.6" y="50.4" fill="#E3BC96" width="13.4" height="29.3"/>
	<path fill="#F7D6B3" d="M44.6,33.7c0.2-2.5,0.3-4.6,0.3-6c0-6.2-2.7-11.7-5.1-12.3s-24.9,0.7-25.2,1C14.3,16.8,8,18,6.9,20.4
		s-1,2.4-1,2.4C6,22.9,6,23.1,6,23.4C6.3,25,6.7,29,7.3,33.7c-2.3,0.3-4,2.5-4,5c0,2.8,2.1,5.1,4.6,5.1c0.3,0,0.5,0,0.8-0.1
		c1,6.4,1.1,9.9,3.4,13.3c2.3,3.4,7.9,6.9,14.8,7c6.9,0.1,10.6-3.5,12.8-5.2s3.2-9.2,4.1-17.2c0.2,0,0.5,0,0.7,0
		c3.1,0,5.5-1.8,5.5-4C50.1,35.5,47.7,33.7,44.6,33.7z"/>
	<path fill="#492C17" d="M4.9,35c-1.1-1.3-1.7-4.6-2.4-8.8c-1.1-6-5-13.6,0-15.2s23.4-3.5,30.8-5.3S48.3,0,48.3,0s-2.7,6.1-3.9,7
		c-1.2,0.9,3.9-2.5,3.9-2.5s-0.6,5.2-1.4,5.6c-0.8,0.5,3.4-0.6,3.4-0.6s-4.5,13.8-4.8,18.9s-1.2,5.3-1.2,5.3h-1.5L42.9,23
		c0,0-7.4-3.7-17.7-1.5S6.5,21.9,6.5,21.9l0.9,13L4.9,35z"/>
</g>
<ellipse fill="#FFFFFF" cx="34.8" cy="35" rx="4.2" ry="6.4"/>
<path fill="#212121" d="M35.4,35.6c0,1-0.5,1.8-1.2,1.8c-0.6,0-1.2-0.8-1.2-1.8c0-0.1,0.8,0.1,0.8,0.1s-0.8-0.6-0.8-0.7
	c0.2-0.7,0.6-1.2,1.1-1.2C34.9,33.8,35.4,34.6,35.4,35.6z"/>
<ellipse fill="#FFFFFF" cx="17.4" cy="35" rx="4.2" ry="6.4"/>
<path fill="#212121" d="M18,35.6c0,1-0.5,1.8-1.2,1.8s-1.2-0.8-1.2-1.8c0-0.1,0.8,0.1,0.8,0.1s-0.8-0.6-0.8-0.7
	c0.2-0.7,0.6-1.2,1.1-1.2C17.5,33.8,18,34.6,18,35.6z"/>
<polygon fill="#644224" points="10.9,29.2 17.4,27 17.4,24.4 16.4,26 15.6,25.4 12.7,26.8 10.9,28.3 "/>
<polygon fill="#644224" points="39.2,28.7 31.5,26.5 31.5,23.9 32.7,25.6 33.7,24.9 37.1,26.3 39.2,27.8 "/>
<path fill="#BA9B82" d="M22.1,46.2c0,0,3.1,1.1,5.1,0s1.4-1.4,1.4-1.4s-0.7,2.9-2.8,3.1S22.1,46.2,22.1,46.2z"/>
</svg>
