<?xml version="1.0" encoding="utf-8"?>
<!-- Generator: Adobe Illustrator 19.1.0, SVG Export Plug-In . SVG Version: 6.00 Build 0)  -->
<svg version="1.1" id="Layer_1" xmlns="http://www.w3.org/2000/svg" xmlns:xlink="http://www.w3.org/1999/xlink" x="0px" y="0px"
	 viewBox="0 0 119.6 103.7" enable-background="new 0 0 119.6 103.7" xml:space="preserve">
<g>
	<path fill="#333333" d="M58.5,50.3C35.9,58.2,15.3,33,15.3,33L9.5,44.2c0,0,26.9,22.4,48.2,14C62.5,57.3,66.9,47.9,58.5,50.3z"/>
	<path fill="#F7D6B3" d="M4.5,23.3c0,0-4,0.7-3.9,3.2s2.3,19.2,2.3,19.2s0.7,3.8,3.3,3.7s7.5-0.8,7.5-0.8s2.4-0.5,3-1.4
		c0.7-0.9,0.7-0.9,0.7-0.9s2.9-1.7,3-3.5c0.1-1.9-2.7-4.3-2.7-4.3s3.2-1,2.9-3.3s-3.4-4-3.4-4s3.5-1.6,2.3-5.4
		c-1.3-3.7-7.3-3.5-7.3-3.5s2.4-12.8-0.6-16.5s-6.3-6.7-9-5.4S-0.5,4.6,0.6,7s2.9,8,3.4,10S4.5,23.3,4.5,23.3z"/>
</g>
</svg>
