<?xml version="1.0" encoding="utf-8"?>
<!-- Generator: Adobe Illustrator 19.1.0, SVG Export Plug-In . SVG Version: 6.00 Build 0)  -->
<svg version="1.1" id="Layer_1" xmlns="http://www.w3.org/2000/svg" xmlns:xlink="http://www.w3.org/1999/xlink" x="0px" y="0px"
	 viewBox="0 0 123.1 146.8" enable-background="new 0 0 123.1 146.8" xml:space="preserve">
<path fill="#F7D6B3" d="M35.3,43.4c4.6,4,7.9,7.2,5.5,10.7s-5.1,7.5-5.7,9.1c-0.6,1.7-1.3,12.4-1.3,12.4L27.2,73l0.6-16.2
	c0,0-4.6-12.2-2.2-12.8S35.3,43.4,35.3,43.4z"/>
<g>
	
		<rect x="27.9" y="39.9" transform="matrix(0.9308 0.3656 -0.3656 0.9308 21.1242 -7.8267)" fill="#454545" width="6.8" height="24"/>
	<path fill="#FFCA08" d="M56,32.3l-18.3-7.2l-4.1,10.5l-2.3,6l-0.1,0.2l6.1,2.4l0.1-0.2l12.2,4.8c2.4,0.9,5.2-0.6,6.3-3.5l2.4-6.2
		C59.4,36.3,58.4,33.2,56,32.3z"/>
	<path fill="#B3D6D6" d="M1.9,47.3L1.3,47c-1-0.4-1.6-1.6-1.1-2.6L17.1,1.3c0.4-1,1.6-1.6,2.6-1.1l0.6,0.2c1,0.4,1.6,1.6,1.1,2.6
		L4.5,46.1C4.1,47.2,2.9,47.7,1.9,47.3z"/>
	<polygon fill="#95B3B3" points="31.5,41 4.7,45 20.8,4 37.5,25.7 34.6,33.1 	"/>
	<path fill="#7E8A9A" d="M6.4,27L7,27.3l3.4-8.7l-0.6-0.2c-2.1-0.8-4.4,0.2-5.3,2.3l-0.5,1.2C3.3,23.9,4.3,26.2,6.4,27z"/>
	<path fill="#CDA22C" d="M54.5,43.6c0,0,3.6-4.4,2.2-7.4C55.1,33.1,44.8,30,45,30s9.3,5.6,10,7C56.2,39.9,54.5,43.6,54.5,43.6z"/>
</g>
<path fill="#F7D6B3" d="M40,50.5c0-1.1-0.9-2.1-2-2.1l-4.3-0.1c0.1-0.1,0.2-0.3,0.3-0.5l0,0c0.4-1-0.1-2.2-1.2-2.6l-6.9-2.7
	c-1-0.4-2.2,0.1-2.6,1.2l0,0c-0.4,1,0.1,2.2,1.2,2.6L31,49c-0.4,0.3-0.6,0.8-0.6,1.3l-3.6-1.4c-1-0.4-2.2,0.1-2.6,1.2
	s0.1,2.2,1.2,2.6l-0.3-0.1c-1-0.4-2.2,0.1-2.6,1.2c-0.3,0.7-0.1,1.5,0.3,2c-0.7,0.1-1.4,0.6-1.6,1.3c-0.4,1,0.1,2.2,1.2,2.6l5.1,2
	c1,0.4,2.2-0.1,2.6-1.2c0.3-0.7,0.1-1.5-0.3-2c0.7-0.1,1.4-0.6,1.6-1.3c0.4-1-0.1-2.2-1.2-2.6l0.3,0.1c1,0.4,2.2-0.1,2.6-1.2
	c0.1-0.4,0.2-0.7,0.1-1.1l4.7,0.1C39,52.5,39.9,51.6,40,50.5z"/>
<polygon fill="#E0E0E0" points="25.4,66.7 38,67.6 38,72.3 25.4,72.3 "/>
<path fill="#333333" d="M58.1,72.9c0,0-7.8,18.6-14.4,22.7S39.8,70,39.8,70H23.9c0,0,0,36.6,17.8,35.5c6.7-0.4,20.6-23.7,20.6-23.7
	s1.9-4.6,0-7.5S58.1,72.9,58.1,72.9z"/>
</svg>
