<?xml version="1.0" encoding="utf-8"?>
<!-- Generator: Adobe Illustrator 19.1.0, SVG Export Plug-In . SVG Version: 6.00 Build 0)  -->
<svg version="1.1" id="Layer_1" xmlns="http://www.w3.org/2000/svg" xmlns:xlink="http://www.w3.org/1999/xlink" x="0px" y="0px"
	 viewBox="0 0 70.2 125.5" enable-background="new 0 0 70.2 125.5" xml:space="preserve">
<g>
	<path fill="#F7D6B3" d="M58.8,35.3c0,0-1.2-5.8-1.6-7.4c-0.4-1.6-3.7-3.4-5.4-4.2s-5.8-3.1-5.9-4.5c-0.1-1.4,0.6-2.9,2.3-2.4
		c1.1,0.5,5.2,2.5,5.2,2.5s-1.3-14.2-1-16.6S54.4,0,54.4,0s1.7-0.3,2.3,2.8s0.6,12.5,0.6,12.5S57.2,9.7,59,9.5
		c2.3-0.3,2.5,3.9,2.5,3.9s0.4-2.9,2-2.5c1.6,0.4,1.9,2.2,1.9,2.2s0.5-1.1,2.4-0.6c1.9,0.5,2.4,6.2,2.3,8.5c-0.1,2.3-2,5.2-3.1,6.7
		s-0.4,5-0.4,6.9c0,1.9-2.9,5.5-3.7,5.3C62.1,39.7,58.8,35.3,58.8,35.3z"/>
	<polygon fill="#E0E0E0" points="68.2,31.6 57.1,32.5 57.1,37.1 68.2,37.1 	"/>
	<path fill="#4D4E4E" d="M40.6,61.3c0,0,5.6,10,11.4,14s3.4-40.4,3.4-40.4h14.1c0,0,0,51.4-15.8,50.3c-5.9-0.4-17.6-15.6-17.6-15.6
		s-4.8-5.4-4.3-7.8S40.6,61.3,40.6,61.3z"/>
</g>
</svg>
