<?xml version="1.0" encoding="utf-8"?>
<!-- Generator: Adobe Illustrator 19.1.0, SVG Export Plug-In . SVG Version: 6.00 Build 0)  -->
<svg version="1.1" id="Layer_1" xmlns="http://www.w3.org/2000/svg" xmlns:xlink="http://www.w3.org/1999/xlink" x="0px" y="0px"
	 viewBox="0 0 51.5 151.9" enable-background="new 0 0 51.5 151.9" xml:space="preserve">
<path fill="#F7D6B3" d="M26.7,151.9c0,0,3-1.2,2.1-5.3c-0.9-4.1-0.7-19.4-0.7-19.4l-5.9,1.6L26.7,151.9z"/>
<polygon fill="#E2E2E2" points="29.1,123.5 25.6,125 29.1,138.7 32.2,135.2 "/>
<path fill="#4D4E4E" d="M29.2,74.7c0,0,18.2,24.9,21.9,32.3c3.7,7.3-20,31.1-20,31.1l-3.9-14.8c0,0,16.5-9.5,15-16.8
	c-1.5-7.3-16.9-25-16.9-25s-3.1-4.2-1.6-6.5C25.1,72.5,29.2,74.7,29.2,74.7z"/>
</svg>
