<?xml version="1.0" encoding="utf-8"?>
<!-- Generator: Adobe Illustrator 19.1.0, SVG Export Plug-In . SVG Version: 6.00 Build 0)  -->
<svg version="1.1" id="Layer_1" xmlns="http://www.w3.org/2000/svg" xmlns:xlink="http://www.w3.org/1999/xlink" x="0px" y="0px"
	 viewBox="0 0 64.3 101" enable-background="new 0 0 64.3 101" xml:space="preserve">
<rect x="20.9" y="9.3" fill="#E5E5E5" width="20.8" height="22.6"/>
<polygon fill="#FAA41A" points="29,15.5 34.9,15.5 36.1,13.1 32.6,9.2 28.2,13.1 "/>
<polygon fill="#E86124" points="32.8,53 38.3,41.9 34.9,15.5 29,15.5 25.3,44.9 "/>
<polygon fill="#FFFFFF" points="40.6,0 31.8,9.2 40.6,18.7 43.8,4.1 "/>
<polygon fill="#FFFFFF" points="24.1,0 20.6,4.1 24.1,17.9 32.6,9.2 "/>
<polygon fill="#333333" points="0,15.5 10.3,57.3 2.6,93.4 30.3,99.8 33.7,90.6 32.8,50.1 20.6,8.2 "/>
<polygon fill="#4D4E4E" points="64.3,15.5 54.8,55.7 63.1,92.8 34.9,101 30.3,89 30.3,50.1 43,7.1 "/>
<polygon fill="#5D5F5F" points="20.6,4.1 13.4,12.9 17,13.7 15.8,15.6 31.6,48.3 "/>
<polygon fill="#5D5F5F" points="43.8,4.1 30.3,53 48.6,15.4 47.1,14.2 50.9,12.9 "/>
<circle fill="#878787" cx="33.7" cy="55" r="1.5"/>
<circle fill="#878787" cx="33.3" cy="87.7" r="1.5"/>
<circle fill="#878787" cx="33.3" cy="71" r="1.5"/>
</svg>
